<svg id="レイヤー_1" data-name="レイヤー 1" xmlns="http://www.w3.org/2000/svg" viewBox="0 0 122.2 142.4">
  <defs>
    <style>
      .cls-1 {
        fill: #00bfff;
      }

      .cls-2 {
        fill: #fff;
      }

      .cls-3 {
        fill: none;
      }

      .cls-4 {
        fill: #ffea55;
      }
    </style>
  </defs>
  <title>アートボード 3</title>
  <g>
    <path class="cls-1" d="M44.22,138.18c1.8-19,1.74-27.11,5.56-36.63,1.32-3.28,19.87-14.62,22.5-16.89.3-.6,17.68-3.91,22.27-.12C100,89,113.44,96.65,119,104.64c3.14,10.56.93,20.74,2,36.43l-65.76.11Z"/>
    <path class="cls-2" d="M50.22,101.18l-3,11-8,29h16C55.57,122.75,54,109.12,50.22,101.18Z"/>
    <path class="cls-2" d="M117.22,102.18l3,10,1,29h-9C111.91,122.75,113.41,110.12,117.22,102.18Z"/>
    <path d="M121,142.29a1.21,1.21,0,0,1-1.21-1.13c-.42-6.1-.34-11.42-.28-16.12.11-7.3.19-13.61-1.63-19.87-3.82-5.4-11.42-10.68-17.54-14.93-2.64-1.83-4.92-3.41-6.54-4.76-3.7-3.06-18.58-.74-20.76.16-.93.78-3.29,2.36-6.26,4.35-5.27,3.54-15.09,10.12-15.85,12-3.27,8.16-3.64,12.25-4.87,25.77-.18,2-.38,4.13-.61,6.52a1.22,1.22,0,0,1-2.43-.23c.23-2.39.43-4.55.61-6.51,1.26-13.8,1.64-18,5-26.45,1-2.41,7.85-7.16,16.75-13.13,2.73-1.83,5.11-3.43,6-4.14.32-.37,1-.61,2.78-1,.16,0,16.15-3.38,21.17.77,1.55,1.29,3.79,2.84,6.38,4.64,6.34,4.4,14.24,9.89,18.27,15.7l.11.16,0,.19c2,6.67,1.9,13.21,1.79,20.79-.06,4.65-.14,9.92.27,15.91a1.21,1.21,0,0,1-1.13,1.3Z"/>
    <path d="M55,142.05a1,1,0,0,1-1-1c0-1.22,0-2.68-.06-4.29-.12-10.78-.34-30.84-4.44-34.94a1,1,0,0,1,1.38-1.38c4.3,4.3,4.84,20.29,5,36.29,0,1.61,0,3.06.06,4.27a1,1,0,0,1-.95,1Z"/>
    <path d="M111.69,142.05h0a1,1,0,0,1-1-1c0-1.24,0-2.67.05-4.24.1-11.47.24-28.8,5.77-34.32a1,1,0,0,1,1.38,1.38c-5,5-5.11,22.48-5.2,32.95,0,1.58,0,3,0,4.28A1,1,0,0,1,111.69,142.05Z"/>
    <g>
      <polygon class="cls-2" points="84.22 109.18 71.22 86.18 96.22 86.18 84.22 109.18"/>
      <path d="M84.22,110.4a1.22,1.22,0,0,1-1.06-.62l-13-23A1.21,1.21,0,0,1,71.22,85h25a1.22,1.22,0,0,1,1.08,1.78l-12,23a1.22,1.22,0,0,1-1.06.66Zm-10.91-23,10.87,19.22,10-19.22Z"/>
    </g>
    <g>
      <path class="cls-2" d="M62.72,40.1c-.38,18,4.94,24.3,12.46,28.81,2.83,3.23,1,14.25-4.29,16.8,1.47,1.46,12.33,1.47,12.33,1.47s12.19.9,13-1.08c-4.91-2.75-5.55-12.65-4.37-17.95,6.25-5.66,7.55-5.36,9.66-18,2.59-15.65,2.16-19.69,2.16-19.69l-1.4-10L87.85,10.07,72.28,20.61,65.4,26.08l-4.08,8.54Z"/>
      <path d="M89,88.64q-2.57,0-5.9-.25h-.07c-4.16,0-11.45-.24-13-1.82a1.21,1.21,0,0,1,.34-2c2.08-1,3.83-3.89,4.58-7.54.62-3,.38-5.95-.58-7.23-8-4.84-13.21-11.79-12.87-29.6l-1.36-5.31a1.25,1.25,0,0,1,.08-.83l4.08-8.54a1.18,1.18,0,0,1,.34-.43l6.88-5.48L87.16,9.06a1.22,1.22,0,0,1,1.4,0L103,19.42a1.25,1.25,0,0,1,.5.82l1.4,10c0,.21.42,4.43-2.17,20.06-1.86,11.2-3.1,12.65-8.06,17-.52.45-1.08.94-1.69,1.49-1.08,5.42-.17,14,3.85,16.25a1.21,1.21,0,0,1,.53,1.53C96.79,88,94,88.64,89,88.64Zm-15.55-3.3a69,69,0,0,0,9.74.62A54.41,54.41,0,0,0,94,85.87c-4.17-4.24-4.29-13.42-3.28-18a1.24,1.24,0,0,1,.38-.64c.73-.67,1.4-1.25,2-1.79,4.43-3.87,5.48-4.79,7.26-15.55,2.51-15.12,2.16-19.33,2.16-19.37l-1.32-9.44L87.83,11.55,73,21.62l-6.58,5.24-3.77,7.89,1.29,5a1.24,1.24,0,0,1,0,.33c-.36,16.95,4.27,23.18,11.86,27.73a1.13,1.13,0,0,1,.29.24c1.9,2.17,1.89,6.31,1.25,9.46A15,15,0,0,1,73.48,85.34Zm21.74.13Z"/>
    </g>
    <path d="M91.52,39.76a1.46,1.46,0,0,0-1.77-1.24,1.62,1.62,0,1,0,.75,3.15A1.47,1.47,0,0,0,91.52,39.76Z"/>
    <path d="M77,40.06a1.46,1.46,0,0,0-1.77-1.24A1.62,1.62,0,1,0,76,42,1.47,1.47,0,0,0,77,40.06Z"/>
    <path d="M87.66,32.88l.14-.12s-.09.05,0,0l.35-.2.18-.09c-.13.06.08,0,.09,0l.42-.13a6.3,6.3,0,0,1,2-.2,4.13,4.13,0,0,1,3.39,1.63c.5.8,1.76.07,1.27-.74A5.58,5.58,0,0,0,91,30.63a5.78,5.78,0,0,0-4.33,1.22.73.73,0,0,0,1,1Z"/>
    <path d="M81.74,52.72a8.35,8.35,0,0,0,2.12,0,.74.74,0,0,0,.44-.34.72.72,0,0,0,.07-.56.75.75,0,0,0-.34-.44l-.17-.07a.65.65,0,0,0-.39,0h0l.19,0a8.05,8.05,0,0,1-1.9,0A.75.75,0,0,0,81,52a.72.72,0,0,0,.22.51l.14.12a.82.82,0,0,0,.37.1Z"/>
    <path d="M81.43,61.89a8.86,8.86,0,0,0,1.15.06,8.47,8.47,0,0,0,1.23-.08.49.49,0,0,0,.33-.25.52.52,0,0,0,0-.42.55.55,0,0,0-.25-.33.68.68,0,0,0-.42,0h-.1l-.26,0h-.61a10.49,10.49,0,0,1-1.12-.05A.53.53,0,0,0,81,61a.6.6,0,0,0-.16.39.57.57,0,0,0,.55.54Z"/>
    <path d="M82.86,58.26a10.89,10.89,0,0,1-5.24-1.06.73.73,0,0,1-.23-1,.74.74,0,0,1,1-.23c1.74,1.1,7.22,1.12,8.74,0A.73.73,0,1,1,88,57.18C87,57.9,84.94,58.26,82.86,58.26Z"/>
    <path d="M69.36,47.76l.06-.09c.07-.1,0,0,0,0a1,1,0,0,0,.14-.15l.06-.06s.12-.1,0,0,0,0,0,0l0,0c.06,0,0,0-.07,0l-.19,0h0l-.2,0a.56.56,0,0,1-.31-.23l0,.06a1.13,1.13,0,0,0,.15.21,1.53,1.53,0,0,0,.31.26,1.68,1.68,0,0,0,.78.26,2.82,2.82,0,0,0,1.5-.41.74.74,0,0,0,.27-1,.75.75,0,0,0-1-.27l-.2.1-.09,0c-.09,0,.17-.06,0,0a2,2,0,0,1-.42.11l.2,0a1.31,1.31,0,0,1-.28,0l.2,0-.15,0c-.08,0-.1-.07,0,0,0,0-.12,0-.13-.07l.09.07-.06,0c-.08-.08.11.16,0,0a1.37,1.37,0,0,0-.15-.21.87.87,0,0,0-.62-.29,1.32,1.32,0,0,0-.9.44,2.26,2.26,0,0,0-.46.56.73.73,0,1,0,1.26.74Z"/>
    <path d="M93.32,47.43l.33-.35a.9.9,0,0,0,.18-.15l0,0s0,0,0,0a.67.67,0,0,1-.42,0l-.08-.07h0c-.06-.09,0,0,0,0l.09.18a1.68,1.68,0,0,0,.3.4,1.09,1.09,0,0,0,.73.28,1.92,1.92,0,0,0,.73-.25l1-.5a.73.73,0,0,0-.74-1.27l-1,.51-.13.06c-.09.05,0,0,0,0s-.06,0,.08,0,.17,0,.1,0,.18.06.2.12-.11-.12,0,0,0,0,0,0l-.09-.17a1.07,1.07,0,0,0-1.27-.6,2.45,2.45,0,0,0-1,.8.76.76,0,0,0-.22.51.74.74,0,0,0,1.25.52Z"/>
    <path class="cls-1" d="M87,3.24c-6.65-4.88-22.14-2.17-27.64,11S49.28,64.17,70.05,65.67C61.51,53.45,64,41,64.59,34,66,33,67,31.61,67.66,32.4c1.22,1.48,7.86-1,9.81-2.69,2,.46,1.74.87,5,0,4-1.06,7.47-.71,15.28-7.85,7,13,5.57,32.53-2.48,43.82,9.91-2.72,12.93-12.79,13-24.32S106.43-1.69,87,3.24Z"/>
    <path d="M83.2,71.66c-3.54,0-7.08-.82-9.16-2.31l1.14-1.58c3.53,2.53,12.73,2.79,16-.33l1.35,1.42C90.51,70.78,86.86,71.66,83.2,71.66Z"/>
    <path class="cls-2" d="M70.53,10.23a21,21,0,0,0-7.3,9.17,1.46,1.46,0,0,0,.67,1.65,1.5,1.5,0,0,0,1.78-.23l.22-.26a1.49,1.49,0,0,0,0-2.07,1.48,1.48,0,0,0-2.07,0l-.22.26,2.44,1.42c-.1.26,0,0,0-.07l.13-.31c.1-.2.19-.4.29-.59.19-.38.4-.75.61-1.11s.44-.71.68-1.06c.13-.18.25-.36.39-.54,0,0,.23-.31.12-.17s.14-.17.13-.17a19.93,19.93,0,0,1,1.71-1.85c.32-.31.65-.6,1-.88l.21-.17.16-.13.17-.13.33-.23a1.5,1.5,0,0,0,.52-2,1.48,1.48,0,0,0-2-.53Z"/>
    <path class="cls-2" d="M69.83,13.24a17.12,17.12,0,0,0-2.32,2.1,17.66,17.66,0,0,0-1.88,2.51,1.47,1.47,0,0,0,2.53,1.48,14.66,14.66,0,0,1,1-1.38l-.23.29a15.63,15.63,0,0,1,2.67-2.66l-.3.23.06,0a1.68,1.68,0,0,0,.67-.88,1.47,1.47,0,0,0-1-1.8,1.39,1.39,0,0,0-1.13.15Z"/>
    <path class="cls-2" d="M70.25,15.12a9.42,9.42,0,0,0-1.52,1.37,9.73,9.73,0,0,0-1.2,1.66,1.54,1.54,0,0,0-.15,1.13,1.52,1.52,0,0,0,.67.88,1.44,1.44,0,0,0,1.13.14,1.46,1.46,0,0,0,.87-.67,10.64,10.64,0,0,1,.66-1l-.23.3A8.18,8.18,0,0,1,72,17.47l-.29.23.06-.06a1,1,0,0,0,.41-.37,1.16,1.16,0,0,0,.27-.5,1.53,1.53,0,0,0-.15-1.13,1.45,1.45,0,0,0-.88-.67,1.38,1.38,0,0,0-1.12.15Z"/>
    <path class="cls-2" d="M92.92,11a2.4,2.4,0,0,1,.38.12l.18.06c-.45-.15-.22-.09-.11,0,.28.13.56.28.83.44a10.11,10.11,0,0,1,.87.58,2.83,2.83,0,0,0,.28.2l-.16-.12.13.1.44.37a13.2,13.2,0,0,1,1.57,1.6c.08.09.21.36,0,0a2.43,2.43,0,0,0,.14.2l.28.42.24.42.09.19c.11.23-.15-.38,0,0a1.5,1.5,0,0,0,1.8,1,1.48,1.48,0,0,0,1-1.8,10.31,10.31,0,0,0-3-4.08A10.7,10.7,0,0,0,93.7,8.2,1.46,1.46,0,0,0,92.92,11Z"/>
    <path d="M95.32,66.65a1,1,0,0,1-.8-1.54c7.79-10.92,9-29.33,3-41.69-6.13,5.37-9.68,6.12-12.82,6.79-.64.13-1.27.26-1.92.44-2.76.73-3.33.64-4.6.26l-.48-.14c-2,1.44-6.53,3.26-9,3a2.56,2.56,0,0,1-1.52-.58,9.69,9.69,0,0,0-.79.64c-.24.21-.51.44-.81.67,0,.59-.12,1.23-.19,1.9-.77,7.17-1.93,18,5.52,28.68a1,1,0,0,1,.05,1,1,1,0,0,1-.92.49,14.7,14.7,0,0,1-12-7.36c-4.15-6.74-4.51-16.5-4.07-23.49.48-7.8,2.28-16.41,4.59-21.93A22.42,22.42,0,0,1,73.28.81c5.2-1.45,10.5-.92,14,1.38,4.47-1,8.38-.27,11.62,2.28,10,7.82,10.54,30.21,10.48,36.88-.13,14.3-4.76,22.79-13.75,25.27ZM79.07,1.94a19.66,19.66,0,0,0-5.27.75A20.49,20.49,0,0,0,60.29,14.62c-4,9.57-7.63,32.33-.66,43.65a12.79,12.79,0,0,0,8.42,6.14c-6.54-10.65-5.42-21.12-4.66-28.18.09-.82.17-1.59.23-2.3a1,1,0,0,1,.41-.72c.36-.25.7-.54,1-.82.79-.68,1.45-1.26,2.29-1.19a1.58,1.58,0,0,1,1.07.58c.79.6,6.39-1.09,8.42-2.81a1,1,0,0,1,.85-.21c.43.1.75.2,1,.28.9.27,1.17.35,3.54-.28.68-.18,1.34-.32,2-.46,3.21-.68,6.53-1.39,12.86-7.17a1,1,0,0,1,.82-.24,1,1,0,0,1,.7.5c6.53,12.06,6,30.37-1,42.35,6.39-3.09,9.56-10.46,9.67-22.4C107.5,28,105,11.78,97.64,6c-2.88-2.26-6.27-2.86-10.37-1.81A1,1,0,0,1,86.45,4,12.54,12.54,0,0,0,79.07,1.94Z"/>
    <path class="cls-2" d="M59.22,60.18c-5-17,.83-42.54,5.42-47.71C69.89,6.55,78.39.83,86.57,4.1,86.22-.82,74.22,1.18,74.22,1.18s-11.12,5.48-12,8-7,17-7,20-1,14,0,18C56.33,51.62,59.22,60.18,59.22,60.18Z"/>
    <path class="cls-2" d="M83.66,2.91c2.52,1,3.55,1.88,3.91,2.92,5.36-.94,7.72-.75,12.35,4.63S111.25,42.77,107.85,52a118.57,118.57,0,0,0-.7-29.51C105.22,9.18,99.22,6.18,97.22,4.18c-.17-.17-4-2-5.36-1.81-2.54.35-4.64.81-4.64.81l-2-1Z"/>
    <path class="cls-3" d="M87,3.24c-6.65-4.88-22.14-2.17-27.64,11S49.28,64.17,70.05,65.67C61.51,53.45,64,41,64.59,34,66,33,67,31.61,67.66,32.4c1.22,1.48,7.86-1,9.81-2.69,2,.46,1.74.87,5,0,4-1.06,7.47-.71,15.28-7.85,7,13,5.57,32.53-2.48,43.82,9.91-2.72,12.93-12.79,13-24.32S106.43-1.69,87,3.24Z"/>
    <path d="M95.32,66.65a1,1,0,0,1-.8-1.54c7.79-10.92,9-29.33,3-41.69-6.13,5.37-9.68,6.12-12.82,6.79-.64.13-1.27.26-1.92.44-2.76.73-3.33.64-4.6.26l-.48-.14c-2,1.44-6.53,3.26-9,3a2.56,2.56,0,0,1-1.52-.58,9.69,9.69,0,0,0-.79.64c-.24.21-.51.44-.81.67,0,.59-.12,1.23-.19,1.9-.77,7.17-1.93,18,5.52,28.68a1,1,0,0,1,.05,1,1,1,0,0,1-.92.49,14.7,14.7,0,0,1-12-7.36c-4.15-6.74-4.51-16.5-4.07-23.49.48-7.8,2.28-16.41,4.59-21.93A22.42,22.42,0,0,1,73.28.81c5.2-1.45,10.5-.92,14,1.38,4.47-1,8.38-.27,11.62,2.28,10,7.82,10.54,30.21,10.48,36.88-.13,14.3-4.76,22.79-13.75,25.27ZM79.07,1.94a19.66,19.66,0,0,0-5.27.75A20.49,20.49,0,0,0,60.29,14.62c-4,9.57-7.63,32.33-.66,43.65a12.79,12.79,0,0,0,8.42,6.14c-6.54-10.65-5.42-21.12-4.66-28.18.09-.82.17-1.59.23-2.3a1,1,0,0,1,.41-.72c.36-.25.7-.54,1-.82.79-.68,1.45-1.26,2.29-1.19a1.58,1.58,0,0,1,1.07.58c.79.6,6.39-1.09,8.42-2.81a1,1,0,0,1,.85-.21c.43.1.75.2,1,.28.9.27,1.17.35,3.54-.28.68-.18,1.34-.32,2-.46,3.21-.68,6.53-1.39,12.86-7.17a1,1,0,0,1,.82-.24,1,1,0,0,1,.7.5c6.53,12.06,6,30.37-1,42.35,6.39-3.09,9.56-10.46,9.67-22.4C107.5,28,105,11.78,97.64,6c-2.88-2.26-6.27-2.86-10.37-1.81A1,1,0,0,1,86.45,4,12.54,12.54,0,0,0,79.07,1.94Z"/>
    <g>
      <path class="cls-1" d="M98,20.4C96.42,24,83.4,33.67,76.88,30.32"/>
      <path d="M80,32a7.73,7.73,0,0,1-3.6-.8,1,1,0,1,1,.89-1.74c1.69.87,4.16.77,7.14-.3,6-2.14,11.77-7.21,12.61-9.14a1,1,0,0,1,1.79.78c-1.23,2.82-7.81,8.08-13.75,10.2A15.24,15.24,0,0,1,80,32Z"/>
    </g>
    <g>
      <path class="cls-1" d="M62.94,31.23c-.94,3.64-2.8,10.12,12.86-9.38"/>
      <path d="M62.94,36.28a1.49,1.49,0,0,1-.71-.21c-1.37-.68-.84-2.73-.29-4.89L62,31a1,1,0,0,1,1.19-.7,1,1,0,0,1,.7,1.19l-.05.19a21.82,21.82,0,0,0-.51,2.41c1-.62,3.92-3.12,11.72-12.84a1,1,0,1,1,1.52,1.22C67,34.43,64.19,36.28,62.94,36.28Zm.4-1.72h0Z"/>
    </g>
    <g>
      <path class="cls-1" d="M88.15,20.4C86.59,22.94,73.36,35.33,67.56,32"/>
      <path d="M69.89,33.52a5.46,5.46,0,0,1-2.81-.7,1,1,0,1,1,1-1.69c2.08,1.2,5.92-.05,10.83-3.53a41.3,41.3,0,0,0,8.44-7.71,1,1,0,1,1,1.66,1C87.68,23,77,33.52,69.89,33.52Z"/>
    </g>
    <g>
      <path class="cls-2" d="M23.74,93.34a66.73,66.73,0,0,1-10.82-1C7.69,91.48,2.6,89.75,1.35,86.62-.89,81,27.1,83.26,27.1,83.26S21.5,81,21.5,76.54s11.2,5.6,14.56,9,0,15.68,0,15.68S29.34,93.34,23.74,93.34Z"/>
      <path d="M36.06,102.4a1.26,1.26,0,0,1-.93-.43c-1.77-2.06-7.26-7.41-11.39-7.41a67.5,67.5,0,0,1-11-1C5.65,92.36,1.45,90.16.21,87.07a2.61,2.61,0,0,1,.3-2.59c.69-.94,4.28-3.72,22.13-2.75a7.27,7.27,0,0,1-2.36-5.19,2.14,2.14,0,0,1,1.28-2.18c3.5-1.46,14.16,9.07,15.36,10.28,3.75,3.75.68,15.53.32,16.86a1.22,1.22,0,0,1-1.18.9ZM16,84c-6.85,0-12.58.58-13.54,1.9,0,0-.06.08,0,.24.87,2.19,4.66,4,10.65,5a66.55,66.55,0,0,0,10.61.93c4.42,0,9.23,4.16,11.66,6.58,1-4.53,1.57-10.56-.2-12.34-4.3-4.3-10.53-9.31-12.48-9.71.1,3.54,4.79,5.46,4.83,5.48a1.22,1.22,0,0,1,.74,1.41,1.24,1.24,0,0,1-1.29.94C23.38,84.19,19.55,84,16,84Z"/>
    </g>
    <g>
      <path class="cls-2" d="M38.77,141.18c-2.55-8-4.55-14-10.08-45a10,10,0,0,0,9.53-4c7.13,18.7,10,28,12,41"/>
      <path d="M38.77,142.4a1.23,1.23,0,0,1-1.16-.85l-.14-.44c-2.54-7.94-4.54-14.21-10-44.74a1.2,1.2,0,0,1,.3-1,1.26,1.26,0,0,1,1-.39,8.84,8.84,0,0,0,8.45-3.51A1.2,1.2,0,0,1,38.4,91a1.24,1.24,0,0,1,1,.77C46.79,111.23,49.5,120.48,51.42,133a1.21,1.21,0,0,1-1,1.39,1.23,1.23,0,0,1-1.39-1c-1.85-12.06-4.31-20.65-11.23-38.9a10.87,10.87,0,0,1-7.62,3c5.21,29.07,7.17,35.2,9.64,42.92l.14.44a1.22,1.22,0,0,1-.79,1.53A1.26,1.26,0,0,1,38.77,142.4Z"/>
    </g>
    <path d="M84.22,123.15a4,4,0,1,1,4-4A4,4,0,0,1,84.22,123.15Zm0-6a2,2,0,1,0,2,2A2,2,0,0,0,84.22,117.15Z"/>
    <path d="M84.22,137.15a4,4,0,1,1,4-4A4,4,0,0,1,84.22,137.15Zm0-6a2,2,0,1,0,2,2A2,2,0,0,0,84.22,131.15Z"/>
    <g>
      <polygon class="cls-2" points="71.22 82.18 67.22 95.18 80.22 87.18 71.22 82.18"/>
      <path d="M67.22,96.15a1,1,0,0,1-.6-.2,1,1,0,0,1-.33-1.06l4-13a1,1,0,0,1,.56-.62,1,1,0,0,1,.84,0l9,5a1,1,0,0,1,.5.83,1,1,0,0,1-.46.86l-13,8A1,1,0,0,1,67.22,96.15ZM71.8,83.61,68.91,93l9.38-5.77Z"/>
    </g>
    <g>
      <polygon class="cls-2" points="94.22 82.18 98.22 95.18 85.22 87.18 94.22 82.18"/>
      <path d="M98.22,96.15a1,1,0,0,1-.51-.14l-13-8a1,1,0,0,1-.47-.86,1,1,0,0,1,.51-.83l9-5a1,1,0,0,1,1.4.57l4,13A1,1,0,0,1,98.82,96,1,1,0,0,1,98.22,96.15ZM87.15,87.22,96.53,93l-2.89-9.38Z"/>
    </g>
    <g>
      <polygon class="cls-4" points="94.22 81.18 74.22 83.18 74.22 78.18 92.22 76.18 94.22 81.18"/>
      <path d="M74.22,84.17a1,1,0,0,1-.67-.26,1,1,0,0,1-.32-.73v-5a1,1,0,0,1,.88-1l18-2a1,1,0,0,1,1,.62l2,5a1,1,0,0,1-.82,1.35l-20,2Zm1-5.11v3l17.6-1.76-1.23-3.07Z"/>
    </g>
    <g>
      <path class="cls-4" d="M87.22,77.18s-12,5-13,13c-.87,6.94-5,18-5,18s15-4,16-11S87.22,77.18,87.22,77.18Z"/>
      <path d="M69.22,109.17a1,1,0,0,1-.74-.33,1,1,0,0,1-.19-1c0-.11,4.1-11,4.94-17.78,1.06-8.47,13.1-13.58,13.61-13.79a1,1,0,0,1,1,.11,1,1,0,0,1,.41.88c0,.13-1,13.12-2,20.07-1.08,7.56-16.09,11.64-16.73,11.81A.73.73,0,0,1,69.22,109.17ZM86.09,78.81C83,80.41,75.92,84.6,75.2,90.3c-.66,5.33-3.16,12.89-4.38,16.36,4.72-1.55,12.77-5.1,13.42-9.62C85,91.65,85.79,82.57,86.09,78.81Z"/>
    </g>
    <g>
      <path class="cls-4" d="M88,76.85S99.24,79,101.33,85.47c1.82,5.58,7.12,14,7.12,14S94.73,98.63,92.79,93,88,76.85,88,76.85Z"/>
      <path d="M108.45,100.49h-.06c-1.47-.09-14.44-1.09-16.54-7.14C89.92,87.77,87.06,77.22,87,77.11a1,1,0,0,1,.23-.94,1,1,0,0,1,.91-.29c.49.09,11.86,2.37,14.11,9.28,1.76,5.41,7,13.73,7,13.81a1,1,0,0,1-.84,1.52ZM89.39,78.21c.88,3.18,2.88,10.28,4.34,14.49,1.2,3.49,8.48,5.09,12.85,5.63-1.66-2.79-4.83-8.39-6.19-12.56C99,81.34,92.44,79.06,89.39,78.21Z"/>
    </g>
  </g>
</svg>
